<mxfile host="app.diagrams.net" modified="2024-07-23T07:55:01.373Z" agent="Mozilla/5.0 (Windows NT 10.0; Win64; x64) AppleWebKit/537.36 (KHTML, like Gecko) Chrome/126.0.0.0 Safari/537.36" version="24.7.3" etag="zyPwPuqRiOZM2Ut_RaX-" type="github">
  <diagram name="Page-1" id="ZQQILs_27uDYrTTadvcv">
    <mxGraphModel>
      <root>
        <mxCell id="0" />
        <mxCell id="1" parent="0" />
      </root>
    </mxGraphModel>
  </diagram>
</mxfile>
